<svg width="282" height="33" viewBox="0 0 282 33" fill="none" xmlns="http://www.w3.org/2000/svg">
<path fill-rule="evenodd" clip-rule="evenodd" d="M0 20V31.7253H12.398C19.217 31.7253 24.7966 31.5749 24.7976 31.3916C24.7982 31.2077 23.8079 29.8126 22.5965 28.2918L20.3944 25.5257H13.7015H7.00872V16.9003V8.27481H3.50463H0.000538795L0 20ZM24.6192 8.63438C24.0839 9.1697 24.2095 21.1548 24.7755 23.5974C25.4672 26.578 26.8634 28.2444 30.2317 30.108C33.0765 31.6821 33.3503 31.7253 40.4744 31.7253C47.674 31.7253 47.8379 31.6983 50.4217 30.101C54.7312 27.4368 55.2266 26.0934 55.4407 16.4959L55.6234 8.27481H51.8018H47.9796V16.0081C47.9796 25.9829 48.1365 25.7953 39.7892 25.7953C31.7471 25.7953 31.8069 25.8707 31.8069 15.7622V8.27481H28.3928C26.5147 8.27481 24.8165 8.43654 24.6192 8.63438ZM67.0974 9.1325C62.437 10.7875 58.7615 15.4835 58.7615 19.7839C58.7615 22.4179 60.9874 26.7301 63.23 28.4406C66.6818 31.073 68.4042 31.4557 76.8037 31.4557H84.6378V28.4907V25.5257H77.3854C73.2188 25.5257 69.574 25.2713 68.8193 24.9273C66.3982 23.8238 65.4683 19.4178 67.1503 17.0172C68.7718 14.7013 70.6495 14.2048 77.7827 14.2048C81.454 14.2048 84.5591 14.104 84.6826 13.9805C84.8065 13.8571 84.8233 12.5228 84.7203 11.0155L84.5338 8.27481L76.9035 8.3174C71.7492 8.34597 68.5675 8.61066 67.0974 9.1325ZM88.6524 8.96377C88.5069 9.34275 88.454 14.4981 88.5344 20.4195L88.681 31.1862L92.3199 31.3457L95.9587 31.5048V26.5732V21.641L99.7674 25.0659C107.401 31.9307 106.608 31.5183 112.383 31.6277C115.21 31.6816 117.462 31.5533 117.388 31.3425C117.259 30.977 110.972 25.9926 105.528 21.9397C104.119 20.8917 102.967 19.7402 102.967 19.3817C102.967 18.7946 104.433 17.6307 111.863 12.318C113.107 11.4285 114.829 10.1627 115.689 9.50502L117.253 8.30877L112.045 8.29206L106.838 8.27481L101.398 12.8943L95.9587 17.5143V12.8943V8.27481H92.4379C90.0767 8.27481 88.8298 8.50177 88.6524 8.96377ZM131.088 13.1266C128.951 15.7951 127.025 17.9784 126.808 17.9784C126.59 17.9784 124.838 16.159 122.913 13.9353C120.989 11.7115 119.279 9.89208 119.113 9.89208C118.383 9.89208 114.288 13.2867 114.288 13.8921C114.288 14.262 116.168 16.5876 118.466 19.0593L122.644 23.5543L122.913 27.3705L123.183 31.1862L126.822 31.3457L130.461 31.5048L130.478 27.5721L130.495 23.6389L136.149 17.4394C139.258 14.0296 142.299 10.5724 142.907 9.75731L144.011 8.27481H139.492H134.973L131.088 13.1266Z" fill="url(#paint0_linear_9_398)"/>
<path d="M159.255 30.68C156.765 30.68 154.635 30.56 152.865 30.32C151.095 30.05 149.625 29.54 148.455 28.79C147.315 28.04 146.475 26.99 145.935 25.64C145.395 24.26 145.125 22.475 145.125 20.285C145.125 17.885 145.47 15.98 146.16 14.57C146.88 13.13 147.87 12.065 149.13 11.375C150.42 10.655 151.92 10.175 153.63 9.935C155.37 9.695 157.26 9.575 159.3 9.575C161.73 9.575 163.875 9.62 165.735 9.71C167.595 9.77 168.9 9.89 169.65 10.07C170.55 10.22 171.195 10.49 171.585 10.88C172.005 11.24 172.26 11.645 172.35 12.095C172.44 12.545 172.485 12.995 172.485 13.445V15.515C172.335 15.275 171.885 15.065 171.135 14.885C170.415 14.705 169.545 14.57 168.525 14.48C167.535 14.39 166.515 14.315 165.465 14.255C164.445 14.195 163.515 14.165 162.675 14.165C161.835 14.135 161.22 14.12 160.83 14.12C159.21 14.12 157.92 14.27 156.96 14.57C156 14.84 155.31 15.41 154.89 16.28C154.47 17.15 154.26 18.485 154.26 20.285C154.26 21.905 154.455 23.135 154.845 23.975C155.265 24.815 155.88 25.385 156.69 25.685C157.53 25.985 158.58 26.135 159.84 26.135C161.13 26.135 162.12 26.045 162.81 25.865C163.53 25.655 164.025 25.34 164.295 24.92C164.595 24.5 164.745 23.945 164.745 23.255C164.745 23.045 164.745 22.865 164.745 22.715C164.745 22.565 164.745 22.43 164.745 22.31H157.41C157.41 21.11 157.47 20.195 157.59 19.565C157.74 18.905 158.085 18.44 158.625 18.17C159.195 17.87 160.095 17.72 161.325 17.72H173.34L173.295 23.21C173.295 24.53 173.115 25.67 172.755 26.63C172.395 27.56 171.72 28.325 170.73 28.925C169.77 29.525 168.36 29.975 166.5 30.275C164.64 30.545 162.225 30.68 159.255 30.68ZM185.988 30.68C183.768 30.68 181.968 30.62 180.588 30.5C179.208 30.41 178.158 30.185 177.438 29.825C176.718 29.435 176.223 28.88 175.953 28.16C175.683 27.44 175.548 26.495 175.548 25.325C175.548 23.795 175.698 22.625 175.998 21.815C176.298 21.005 176.793 20.465 177.483 20.195C178.173 19.895 179.088 19.745 180.228 19.745C181.008 19.745 181.893 19.76 182.883 19.79C183.903 19.79 184.893 19.805 185.853 19.835C186.843 19.835 187.713 19.865 188.463 19.925C189.243 19.985 189.753 20.06 189.993 20.15C189.993 19.4 189.933 18.8 189.813 18.35C189.693 17.9 189.468 17.555 189.138 17.315C188.808 17.045 188.373 16.88 187.833 16.82C187.293 16.73 186.603 16.685 185.763 16.685C184.713 16.685 183.648 16.7 182.568 16.73C181.518 16.76 180.483 16.805 179.463 16.865C178.473 16.895 177.513 16.955 176.583 17.045V15.56C176.583 14.69 176.748 14.03 177.078 13.58C177.408 13.13 177.918 12.845 178.608 12.725C179.358 12.575 180.453 12.47 181.893 12.41C183.363 12.35 184.968 12.335 186.708 12.365C188.928 12.365 190.758 12.47 192.198 12.68C193.668 12.89 194.808 13.28 195.618 13.85C196.428 14.42 196.983 15.26 197.283 16.37C197.613 17.45 197.778 18.875 197.778 20.645V29.51C197.178 29.9 195.828 30.2 193.728 30.41C191.658 30.59 189.078 30.68 185.988 30.68ZM185.943 27.44C186.543 27.44 187.098 27.425 187.608 27.395C188.118 27.365 188.568 27.32 188.958 27.26C189.378 27.2 189.723 27.125 189.993 27.035V22.58C189.693 22.52 189.258 22.475 188.688 22.445C188.148 22.385 187.623 22.34 187.113 22.31C186.603 22.28 186.228 22.265 185.988 22.265C185.478 22.265 185.058 22.325 184.728 22.445C184.398 22.565 184.158 22.805 184.008 23.165C183.888 23.525 183.828 24.065 183.828 24.785C183.828 25.445 183.888 25.97 184.008 26.36C184.128 26.75 184.338 27.035 184.638 27.215C184.938 27.365 185.373 27.44 185.943 27.44ZM203.451 30.5C202.251 30.5 201.456 30.32 201.066 29.96C200.706 29.6 200.526 28.82 200.526 27.62V13.625C201.066 13.445 201.741 13.295 202.551 13.175C203.391 13.055 204.291 12.95 205.251 12.86C206.241 12.74 207.201 12.65 208.131 12.59C209.091 12.53 209.931 12.5 210.651 12.5C211.911 12.5 212.991 12.59 213.891 12.77C214.791 12.95 215.571 13.31 216.231 13.85C216.891 14.39 217.446 15.23 217.896 16.37L216.816 16.325C217.086 15.455 217.491 14.765 218.031 14.255C218.571 13.715 219.186 13.325 219.876 13.085C220.596 12.845 221.301 12.695 221.991 12.635C222.681 12.545 223.281 12.5 223.791 12.5C226.011 12.5 227.766 12.68 229.056 13.04C230.346 13.37 231.276 14.015 231.846 14.975C232.416 15.935 232.701 17.315 232.701 19.115V27.89C232.701 29.03 232.491 29.75 232.071 30.05C231.681 30.35 230.931 30.5 229.821 30.5H224.601C224.601 28.55 224.601 26.615 224.601 24.695C224.601 22.745 224.601 20.795 224.601 18.845C224.601 17.705 224.421 16.985 224.061 16.685C223.701 16.385 223.161 16.235 222.441 16.235C222.111 16.235 221.811 16.295 221.541 16.415C221.271 16.505 221.061 16.64 220.911 16.82C220.761 17 220.686 17.21 220.686 17.45V30.5H212.586V18.62C212.586 17.72 212.406 17.12 212.046 16.82C211.686 16.49 211.131 16.325 210.381 16.325C209.991 16.325 209.661 16.355 209.391 16.415C209.151 16.475 208.956 16.58 208.806 16.73C208.686 16.85 208.611 17.015 208.581 17.225V30.5H203.451ZM246.043 30.725C243.823 30.725 241.993 30.605 240.553 30.365C239.143 30.125 238.033 29.705 237.223 29.105C236.443 28.475 235.888 27.59 235.558 26.45C235.228 25.31 235.063 23.855 235.063 22.085C235.063 19.685 235.408 17.795 236.098 16.415C236.788 15.005 237.988 14 239.698 13.4C241.438 12.77 243.853 12.455 246.943 12.455C249.373 12.455 251.293 12.695 252.703 13.175C254.143 13.655 255.163 14.39 255.763 15.38C256.393 16.37 256.708 17.645 256.708 19.205V23.03H244.288C244.288 22.28 244.438 21.665 244.738 21.185C245.068 20.675 245.683 20.42 246.583 20.42H249.553V19.565C249.523 18.575 249.313 17.825 248.923 17.315C248.563 16.805 247.798 16.55 246.628 16.55C245.668 16.55 244.933 16.7 244.423 17C243.943 17.27 243.613 17.795 243.433 18.575C243.253 19.325 243.163 20.435 243.163 21.905C243.163 23.165 243.283 24.11 243.523 24.74C243.763 25.34 244.213 25.745 244.873 25.955C245.563 26.135 246.553 26.225 247.843 26.225C248.353 26.225 249.058 26.21 249.958 26.18C250.888 26.15 251.833 26.135 252.793 26.135C253.783 26.105 254.653 26.075 255.403 26.045C256.153 25.985 256.603 25.94 256.753 25.91V26.855C256.753 27.305 256.678 27.815 256.528 28.385C256.408 28.925 256.183 29.345 255.853 29.645C255.343 30.125 254.308 30.425 252.748 30.545C251.188 30.665 248.953 30.725 246.043 30.725ZM268.298 30.635C267.518 30.635 266.708 30.62 265.868 30.59C265.028 30.56 264.203 30.515 263.393 30.455C262.613 30.365 261.893 30.245 261.233 30.095C260.603 29.945 260.078 29.765 259.658 29.555C259.268 29.345 258.968 28.91 258.758 28.25C258.548 27.59 258.443 26.555 258.443 25.145C259.493 25.445 260.528 25.7 261.548 25.91C262.568 26.12 263.558 26.27 264.518 26.36C265.508 26.45 266.438 26.495 267.308 26.495C267.728 26.495 268.253 26.495 268.883 26.495C269.513 26.465 270.128 26.42 270.728 26.36C271.328 26.27 271.838 26.105 272.258 25.865C272.678 25.595 272.888 25.235 272.888 24.785C272.888 24.305 272.753 23.99 272.483 23.84C272.243 23.66 271.913 23.57 271.493 23.57H266.138C264.668 23.57 263.378 23.495 262.268 23.345C261.158 23.195 260.288 22.775 259.658 22.085C259.058 21.395 258.758 20.21 258.758 18.53C258.758 16.7 259.223 15.35 260.153 14.48C261.083 13.58 262.418 12.995 264.158 12.725C265.898 12.425 267.998 12.275 270.458 12.275C271.358 12.275 272.393 12.29 273.563 12.32C274.763 12.32 275.783 12.38 276.623 12.5C277.673 12.62 278.483 12.785 279.053 12.995C279.653 13.175 280.073 13.505 280.313 13.985C280.553 14.465 280.673 15.2 280.673 16.19V17.585C280.523 17.285 280.058 17.06 279.278 16.91C278.498 16.76 277.553 16.655 276.443 16.595C275.333 16.535 274.163 16.505 272.933 16.505C271.733 16.505 270.608 16.505 269.558 16.505C269.018 16.505 268.523 16.535 268.073 16.595C267.653 16.655 267.323 16.79 267.083 17C266.843 17.21 266.723 17.555 266.723 18.035C266.723 18.395 266.798 18.65 266.948 18.8C267.098 18.95 267.308 19.055 267.578 19.115C267.848 19.145 268.148 19.16 268.478 19.16H274.598C275.918 19.16 277.058 19.28 278.018 19.52C279.008 19.76 279.758 20.255 280.268 21.005C280.808 21.755 281.078 22.94 281.078 24.56C281.078 26.42 280.538 27.785 279.458 28.655C278.378 29.495 276.878 30.035 274.958 30.275C273.068 30.515 270.848 30.635 268.298 30.635Z" fill="white"/>
<defs>
<linearGradient id="paint0_linear_9_398" x1="139.086" y1="20.1348" x2="0.000546389" y2="13.9352" gradientUnits="userSpaceOnUse">
<stop stop-color="#662AFB"/>
<stop offset="1" stop-color="#C94AF6"/>
</linearGradient>
</defs>
</svg>
