<svg width="207" height="91" viewBox="0 0 207 91" fill="none" xmlns="http://www.w3.org/2000/svg">
<path fill-rule="evenodd" clip-rule="evenodd" d="M5.99999 16.8542V33.1589H23.2402C32.7224 33.1589 40.4812 32.9497 40.4827 32.6949C40.4835 32.4392 39.1064 30.4992 37.4219 28.3844L34.3597 24.538H25.0529H15.7461V12.5438V0.549511H10.8734H6.00074L5.99999 16.8542ZM40.2346 1.04952C39.4902 1.79391 39.6649 18.4599 40.452 21.8566C41.4138 26.0013 43.3554 28.3185 48.0391 30.91C51.995 33.0989 52.3758 33.1589 62.2823 33.1589C72.2938 33.1589 72.5216 33.1214 76.1147 30.9002C82.1073 27.1955 82.7962 25.3274 83.0938 11.9815L83.348 0.549511H78.0337H72.7188V11.3031C72.7188 25.1737 72.9369 24.9128 61.3295 24.9128C50.1464 24.9128 50.2296 25.0178 50.2296 10.9613V0.549511H45.4821C42.8703 0.549511 40.509 0.774403 40.2346 1.04952ZM99.3033 1.74219C92.8227 4.04359 87.7116 10.5737 87.7116 16.5536C87.7116 20.2163 90.8069 26.2127 93.9254 28.5913C98.7253 32.2518 101.12 32.7841 112.801 32.7841H123.694V28.6611V24.538H113.609C107.815 24.538 102.747 24.1842 101.698 23.7059C98.331 22.1714 97.0379 16.0446 99.3768 12.7064C101.632 9.48598 104.243 8.79556 114.162 8.79556C119.267 8.79556 123.585 8.65538 123.757 8.48371C123.929 8.31204 123.952 6.45668 123.809 4.36069L123.55 0.549511L112.939 0.608733C105.772 0.648464 101.348 1.01654 99.3033 1.74219ZM129.277 1.50755C129.075 2.03455 129.001 9.20337 129.113 17.4374L129.317 32.4093L134.377 32.6311L139.437 32.8523V25.9946V19.1361L144.733 23.8986C155.348 33.4445 154.246 32.871 162.275 33.0232C166.207 33.0982 169.339 32.9198 169.236 32.6267C169.056 32.1184 160.314 25.1872 152.743 19.5514C150.784 18.0941 149.182 16.4929 149.182 15.9944C149.182 15.178 151.22 13.5595 161.553 6.17182C163.283 4.93491 165.677 3.17475 166.873 2.26019L169.048 0.596738L161.806 0.573499L154.565 0.549511L147.001 6.97319L139.437 13.3976V6.97319V0.549511H134.541C131.258 0.549511 129.524 0.86511 129.277 1.50755ZM188.286 7.29628C185.315 11.007 182.637 14.043 182.334 14.043C182.032 14.043 179.595 11.513 176.919 8.42074C174.243 5.32847 171.865 2.79843 171.635 2.79843C170.619 2.79843 164.925 7.51892 164.925 8.36077C164.925 8.87502 167.539 12.109 170.734 15.5461L176.544 21.7966L176.919 27.1033L177.294 32.4093L182.354 32.6311L187.414 32.8523L187.438 27.3837L187.462 21.9143L195.323 13.2934C199.647 8.55193 203.876 3.74448 204.721 2.61102L206.257 0.549511H199.973H193.688L188.286 7.29628Z" fill="url(#paint0_linear_2_57)"/>
<path d="M22.035 72.26C18.4383 72.26 15.3617 72.0867 12.805 71.74C10.2483 71.35 8.12499 70.6133 6.43499 69.53C4.78833 68.4467 3.57499 66.93 2.79499 64.98C2.01499 62.9867 1.62499 60.4083 1.62499 57.245C1.62499 53.7783 2.12333 51.0267 3.11999 48.99C4.15999 46.91 5.58999 45.3717 7.40999 44.375C9.27333 43.335 11.44 42.6417 13.91 42.295C16.4233 41.9483 19.1533 41.775 22.1 41.775C25.61 41.775 28.7083 41.84 31.395 41.97C34.0817 42.0567 35.9667 42.23 37.05 42.49C38.35 42.7067 39.2817 43.0967 39.845 43.66C40.4517 44.18 40.82 44.765 40.95 45.415C41.08 46.065 41.145 46.715 41.145 47.365V50.355C40.9283 50.0083 40.2783 49.705 39.195 49.445C38.155 49.185 36.8983 48.99 35.425 48.86C33.995 48.73 32.5217 48.6217 31.005 48.535C29.5317 48.4483 28.1883 48.405 26.975 48.405C25.7617 48.3617 24.8733 48.34 24.31 48.34C21.97 48.34 20.1067 48.5567 18.72 48.99C17.3333 49.38 16.3367 50.2033 15.73 51.46C15.1233 52.7167 14.82 54.645 14.82 57.245C14.82 59.585 15.1017 61.3617 15.665 62.575C16.2717 63.7883 17.16 64.6117 18.33 65.045C19.5433 65.4783 21.06 65.695 22.88 65.695C24.7433 65.695 26.1733 65.565 27.17 65.305C28.21 65.0017 28.925 64.5467 29.315 63.94C29.7483 63.3333 29.965 62.5317 29.965 61.535C29.965 61.2317 29.965 60.9717 29.965 60.755C29.965 60.5383 29.965 60.3433 29.965 60.17H19.37C19.37 58.4367 19.4567 57.115 19.63 56.205C19.8467 55.2517 20.345 54.58 21.125 54.19C21.9483 53.7567 23.2483 53.54 25.025 53.54H42.38L42.315 61.47C42.315 63.3767 42.055 65.0233 41.535 66.41C41.015 67.7533 40.04 68.8583 38.61 69.725C37.2233 70.5917 35.1867 71.2417 32.5 71.675C29.8133 72.065 26.325 72.26 22.035 72.26ZM60.7827 72.26C57.5761 72.26 54.9761 72.1733 52.9827 72C50.9894 71.87 49.4727 71.545 48.4327 71.025C47.3927 70.4617 46.6777 69.66 46.2877 68.62C45.8977 67.58 45.7027 66.215 45.7027 64.525C45.7027 62.315 45.9194 60.625 46.3527 59.455C46.7861 58.285 47.5011 57.505 48.4977 57.115C49.4944 56.6817 50.8161 56.465 52.4627 56.465C53.5894 56.465 54.8677 56.4867 56.2977 56.53C57.7711 56.53 59.2011 56.5517 60.5877 56.595C62.0177 56.595 63.2744 56.6383 64.3577 56.725C65.4844 56.8117 66.2211 56.92 66.5677 57.05C66.5677 55.9667 66.4811 55.1 66.3077 54.45C66.1344 53.8 65.8094 53.3017 65.3327 52.955C64.8561 52.565 64.2277 52.3267 63.4477 52.24C62.6677 52.11 61.6711 52.045 60.4577 52.045C58.9411 52.045 57.4027 52.0667 55.8427 52.11C54.3261 52.1533 52.8311 52.2183 51.3577 52.305C49.9277 52.3483 48.5411 52.435 47.1977 52.565V50.42C47.1977 49.1633 47.4361 48.21 47.9127 47.56C48.3894 46.91 49.1261 46.4983 50.1227 46.325C51.2061 46.1083 52.7877 45.9567 54.8677 45.87C56.9911 45.7833 59.3094 45.7617 61.8227 45.805C65.0294 45.805 67.6727 45.9567 69.7527 46.26C71.8761 46.5633 73.5227 47.1267 74.6927 47.95C75.8627 48.7733 76.6644 49.9867 77.0977 51.59C77.5744 53.15 77.8127 55.2083 77.8127 57.765V70.57C76.9461 71.1333 74.9961 71.5667 71.9627 71.87C68.9727 72.13 65.2461 72.26 60.7827 72.26ZM60.7177 67.58C61.5844 67.58 62.3861 67.5583 63.1227 67.515C63.8594 67.4717 64.5094 67.4067 65.0727 67.32C65.6794 67.2333 66.1777 67.125 66.5677 66.995V60.56C66.1344 60.4733 65.5061 60.4083 64.6827 60.365C63.9027 60.2783 63.1444 60.2133 62.4077 60.17C61.6711 60.1267 61.1294 60.105 60.7827 60.105C60.0461 60.105 59.4394 60.1917 58.9627 60.365C58.4861 60.5383 58.1394 60.885 57.9227 61.405C57.7494 61.925 57.6627 62.705 57.6627 63.745C57.6627 64.6983 57.7494 65.4567 57.9227 66.02C58.0961 66.5833 58.3994 66.995 58.8327 67.255C59.2661 67.4717 59.8944 67.58 60.7177 67.58ZM86.1405 72C84.4071 72 83.2588 71.74 82.6955 71.22C82.1755 70.7 81.9155 69.5733 81.9155 67.84V47.625C82.6955 47.365 83.6705 47.1483 84.8405 46.975C86.0538 46.8017 87.3538 46.65 88.7405 46.52C90.1705 46.3467 91.5571 46.2167 92.9005 46.13C94.2871 46.0433 95.5005 46 96.5405 46C98.3605 46 99.9205 46.13 101.22 46.39C102.52 46.65 103.647 47.17 104.6 47.95C105.554 48.73 106.355 49.9433 107.005 51.59L105.445 51.525C105.835 50.2683 106.42 49.2717 107.2 48.535C107.98 47.755 108.869 47.1917 109.865 46.845C110.905 46.4983 111.924 46.2817 112.92 46.195C113.917 46.065 114.784 46 115.52 46C118.727 46 121.262 46.26 123.125 46.78C124.989 47.2567 126.332 48.1883 127.155 49.575C127.979 50.9617 128.39 52.955 128.39 55.555V68.23C128.39 69.8767 128.087 70.9167 127.48 71.35C126.917 71.7833 125.834 72 124.23 72H116.69C116.69 69.1833 116.69 66.3883 116.69 63.615C116.69 60.7983 116.69 57.9817 116.69 55.165C116.69 53.5183 116.43 52.4783 115.91 52.045C115.39 51.6117 114.61 51.395 113.57 51.395C113.094 51.395 112.66 51.4817 112.27 51.655C111.88 51.785 111.577 51.98 111.36 52.24C111.144 52.5 111.035 52.8033 111.035 53.15V72H99.3355V54.84C99.3355 53.54 99.0755 52.6733 98.5555 52.24C98.0355 51.7633 97.2338 51.525 96.1505 51.525C95.5871 51.525 95.1105 51.5683 94.7205 51.655C94.3738 51.7417 94.0921 51.8933 93.8755 52.11C93.7021 52.2833 93.5938 52.5217 93.5505 52.825V72H86.1405ZM147.796 72.325C144.589 72.325 141.946 72.1517 139.866 71.805C137.829 71.4583 136.226 70.8517 135.056 69.985C133.929 69.075 133.127 67.7967 132.651 66.15C132.174 64.5033 131.936 62.4017 131.936 59.845C131.936 56.3783 132.434 53.6483 133.431 51.655C134.427 49.6183 136.161 48.1667 138.631 47.3C141.144 46.39 144.632 45.935 149.096 45.935C152.606 45.935 155.379 46.2817 157.416 46.975C159.496 47.6683 160.969 48.73 161.836 50.16C162.746 51.59 163.201 53.4317 163.201 55.685V61.21H145.261C145.261 60.1267 145.477 59.2383 145.911 58.545C146.387 57.8083 147.276 57.44 148.576 57.44H152.866V56.205C152.822 54.775 152.519 53.6917 151.956 52.955C151.436 52.2183 150.331 51.85 148.641 51.85C147.254 51.85 146.192 52.0667 145.456 52.5C144.762 52.89 144.286 53.6483 144.026 54.775C143.766 55.8583 143.636 57.4617 143.636 59.585C143.636 61.405 143.809 62.77 144.156 63.68C144.502 64.5467 145.152 65.1317 146.106 65.435C147.102 65.695 148.532 65.825 150.396 65.825C151.132 65.825 152.151 65.8033 153.451 65.76C154.794 65.7167 156.159 65.695 157.546 65.695C158.976 65.6517 160.232 65.6083 161.316 65.565C162.399 65.4783 163.049 65.4133 163.266 65.37V66.735C163.266 67.385 163.157 68.1217 162.941 68.945C162.767 69.725 162.442 70.3317 161.966 70.765C161.229 71.4583 159.734 71.8917 157.481 72.065C155.227 72.2383 151.999 72.325 147.796 72.325ZM180.075 72.195C178.949 72.195 177.779 72.1733 176.565 72.13C175.352 72.0867 174.16 72.0217 172.99 71.935C171.864 71.805 170.824 71.6317 169.87 71.415C168.96 71.1983 168.202 70.9383 167.595 70.635C167.032 70.3317 166.599 69.7033 166.295 68.75C165.992 67.7967 165.84 66.3017 165.84 64.265C167.357 64.6983 168.852 65.0667 170.325 65.37C171.799 65.6733 173.229 65.89 174.615 66.02C176.045 66.15 177.389 66.215 178.645 66.215C179.252 66.215 180.01 66.215 180.92 66.215C181.83 66.1717 182.719 66.1067 183.585 66.02C184.452 65.89 185.189 65.6517 185.795 65.305C186.402 64.915 186.705 64.395 186.705 63.745C186.705 63.0517 186.51 62.5967 186.12 62.38C185.774 62.12 185.297 61.99 184.69 61.99H176.955C174.832 61.99 172.969 61.8817 171.365 61.665C169.762 61.4483 168.505 60.8417 167.595 59.845C166.729 58.8483 166.295 57.1367 166.295 54.71C166.295 52.0667 166.967 50.1167 168.31 48.86C169.654 47.56 171.582 46.715 174.095 46.325C176.609 45.8917 179.642 45.675 183.195 45.675C184.495 45.675 185.99 45.6967 187.68 45.74C189.414 45.74 190.887 45.8267 192.1 46C193.617 46.1733 194.787 46.4117 195.61 46.715C196.477 46.975 197.084 47.4517 197.43 48.145C197.777 48.8383 197.95 49.9 197.95 51.33V53.345C197.734 52.9117 197.062 52.5867 195.935 52.37C194.809 52.1533 193.444 52.0017 191.84 51.915C190.237 51.8283 188.547 51.785 186.77 51.785C185.037 51.785 183.412 51.785 181.895 51.785C181.115 51.785 180.4 51.8283 179.75 51.915C179.144 52.0017 178.667 52.1967 178.32 52.5C177.974 52.8033 177.8 53.3017 177.8 53.995C177.8 54.515 177.909 54.8833 178.125 55.1C178.342 55.3167 178.645 55.4683 179.035 55.555C179.425 55.5983 179.859 55.62 180.335 55.62H189.175C191.082 55.62 192.729 55.7933 194.115 56.14C195.545 56.4867 196.629 57.2017 197.365 58.285C198.145 59.3683 198.535 61.08 198.535 63.42C198.535 66.1067 197.755 68.0783 196.195 69.335C194.635 70.5483 192.469 71.3283 189.695 71.675C186.965 72.0217 183.759 72.195 180.075 72.195Z" fill="white"/>
<defs>
<linearGradient id="paint0_linear_2_57" x1="199.408" y1="17.0416" x2="6.00075" y2="8.42072" gradientUnits="userSpaceOnUse">
<stop stop-color="#662AFB"/>
<stop offset="1" stop-color="#C94AF6"/>
</linearGradient>
</defs>
</svg>
